<svg xmlns="http://www.w3.org/2000/svg" width="32" height="32" viewBox="0 0 32 32" shape-rendering="crispEdges">
  <path fill="#fff" d="M14 4h6v1H14zM14 5h6v1H14zM10 6h2v1H10zM22 6h2v1H22zM10 7h2v1H10zM22 7h2v1H22zM8 8h2v1H8zM24 8h2v1H24zM8 9h2v1H8zM24 9h2v1H24zM6 12h2v1H6zM26 12h2v1H26zM6 13h2v1H6zM26 13h2v1H26zM6 14h2v1H6zM26 14h2v1H26zM6 15h2v1H6zM26 15h2v1H26zM6 16h2v1H6zM26 16h2v1H26zM6 17h2v1H6zM26 17h2v1H26zM8 20h2v1H8zM24 20h2v1H24zM8 21h2v1H8zM24 21h2v1H24zM10 22h2v1H10zM22 22h2v1H22zM10 23h2v1H10zM22 23h2v1H22zM14 24h6v1H14zM14 25h6v1H14z"/>
</svg>
