<svg xmlns="http://www.w3.org/2000/svg" width="32" height="32" viewBox="0 0 32 32" shape-rendering="crispEdges">
  <path fill="#fff" d="M20 4h4v1H20zM20 5h4v1H20zM18 6h2v1H18zM24 6h2v1H24zM18 7h2v1H18zM24 7h2v1H24zM16 8h2v1H16zM20 8h2v1H20zM26 8h2v1H26zM16 9h2v1H16zM20 9h2v1H20zM26 9h2v1H26zM14 10h2v1H14zM22 10h6v1H22zM14 11h2v1H14zM22 11h6v1H22zM12 12h2v1H12zM22 12h4v1H22zM12 13h2v1H12zM22 13h4v1H22zM10 14h2v1H10zM20 14h4v1H20zM10 15h2v1H10zM20 15h4v1H20zM8 16h2v1H8zM18 16h4v1H18zM8 17h2v1H8zM18 17h4v1H18zM6 18h2v1H6zM16 18h4v1H16zM6 19h2v1H6zM16 19h4v1H16zM4 20h2v1H4zM14 20h4v1H14zM4 21h2v1H4zM14 21h4v1H14zM4 22h2v1H4zM12 22h4v1H12zM4 23h2v1H4zM12 23h4v1H12zM4 24h10v1H4zM4 25h10v1H4zM4 26h8v1H4zM4 27h8v1H4z"/>
  <path fill="#fff" fill-opacity="0.490" d="M22 8h2v1H22zM22 9h2v1H22zM10 22h2v1H10zM10 23h2v1H10z"/>
</svg>
